<svg xmlns="http://www.w3.org/2000/svg" viewBox="0 0 320 320" fill="none">
  <g stroke="#F5F1E8" stroke-linecap="round" stroke-linejoin="round">
    <path stroke-width="4" d="M91 83h142l-18 187H110L91 83Z"/>
    <path stroke-width="3" d="M84 83h156M101 113h123M105 178c34 9 78 9 113 0"/>
    <path stroke-width="4" d="m178 84 44-66m-20 3 34 14"/>
    <path stroke-width="2.5" d="m111 117 26 29 28-28 27 29 25-28m-99 30 20 29 27-30 28 30 20-29" opacity=".75"/>
    <circle cx="130" cy="202" r="8" stroke-width="2"/><circle cx="187" cy="220" r="6" stroke-width="2"/><circle cx="155" cy="239" r="4" stroke-width="2"/>
    <path stroke-width="2.5" d="M221 78c-2-21 17-33 35-25-2 22-15 34-35 25Zm7-4c8-4 15-10 22-17M99 102C78 97 64 112 68 131c22 3 35-8 31-29Zm-6 8c-7 5-13 10-20 15"/>
    <path stroke-width="2" d="M118 187l7 66m76-65-9 66m-35-65v70" opacity=".62"/>
    <path stroke-width="2" d="M80 280c48 10 121 11 170 1M99 290c36 5 88 5 126 0"/>
    <path stroke-width="2" d="M52 207c7-12 22-17 34-11-1 16-15 24-34 11Zm8-2c7-2 13-6 19-11"/>
  </g>
</svg>
